<svg width="60" height="55" viewBox="0 0 60 55" fill="none" xmlns="http://www.w3.org/2000/svg">
<path d="M54.3108 22.6014C51.0359 23.716 46.7048 24.3298 42.1158 24.3298C41.8289 24.3298 41.5431 24.3275 41.2586 24.3227C36.9894 24.2512 32.991 23.6464 29.9207 22.6014C29.428 22.4347 28.9424 22.2477 28.4651 22.0411V40.7675C28.4651 48.6153 22.0805 55 14.2325 55C6.38461 55 0 48.6153 0 40.7675V15.0739C0 7.22606 6.38461 0.841331 14.2325 0.841331C16.722 0.841331 19.1722 1.49383 21.3188 2.72828C22.6721 3.50665 23.8881 4.50637 24.9168 5.67426C25.6645 4.62391 27.1451 3.51438 29.9208 2.56973C33.1957 1.45516 37.5266 0.841331 42.1157 0.841331C46.7047 0.841331 51.0357 1.45516 54.3107 2.56973C59.0129 4.17004 60 6.24344 60 7.70102V17.4701C60 18.9277 59.0129 21.0011 54.3108 22.6014ZM26.5754 17.4701C26.5759 17.5137 26.5798 17.5572 26.5871 17.6002L26.5891 17.6118C26.6289 17.8236 26.7563 18.0695 26.9907 18.3361L26.9952 18.3411C27.0307 18.3813 27.0695 18.422 27.1099 18.4632C27.137 18.4904 27.1641 18.5177 27.193 18.5448L27.2271 18.5767C27.4235 18.7578 27.6601 18.9397 27.9332 19.1175C27.9379 19.1206 27.9418 19.1243 27.9464 19.1274C28.5871 19.5435 29.478 19.975 30.6759 20.3827C33.7141 21.4166 37.7769 21.9862 42.1158 21.9862C46.0691 21.9861 49.7904 21.512 52.719 20.6459L27.6397 16.0244C26.8868 16.5787 26.5767 17.0923 26.5754 17.4677V17.4701ZM26.1213 20.7097C25.2179 20.0175 24.7144 19.3143 24.4591 18.6618C24.3731 18.4424 24.3108 18.2145 24.2733 17.9819C24.2561 17.8761 24.2443 17.7695 24.2379 17.6625L24.2359 17.6323C24.2331 17.5776 24.2313 17.5234 24.2313 17.4702V8.6391C22.0289 5.21758 18.315 3.18508 14.2325 3.18508C7.67707 3.18508 2.34375 8.5184 2.34375 15.0739V26.7488H4.6875V20.4207C4.6875 19.7734 5.21227 19.2488 5.85938 19.2488C6.50648 19.2488 7.03125 19.7734 7.03125 20.4207V26.7488H26.1213V20.7097ZM26.1213 29.0925H7.03125V40.7675C7.03125 44.7382 10.2616 47.9688 14.2325 47.9688C18.2034 47.9688 21.4338 44.7382 21.4338 40.7675C21.4338 40.1202 21.9586 39.5956 22.6057 39.5956C23.2529 39.5956 23.7776 40.1202 23.7776 40.7675C23.7776 46.0306 19.4957 50.3125 14.2325 50.3125C8.96941 50.3125 4.6875 46.0306 4.6875 40.7675V29.0925H2.34375V40.7675C2.34375 47.3229 7.67707 52.6563 14.2325 52.6563C20.788 52.6563 26.1213 47.3229 26.1213 40.7675V29.0925ZM57.6562 7.70102C57.6562 7.00129 56.5823 5.81864 53.5556 4.78844C50.5174 3.7545 46.4546 3.18496 42.1158 3.18496C37.7769 3.18496 33.7141 3.75438 30.6759 4.78844C27.6492 5.81852 26.5753 7.00118 26.5753 7.70102V8.30137L26.5754 8.30301V13.9068C27.3962 13.3607 28.4844 12.8276 29.9208 12.3388C33.1957 11.2243 37.5267 10.6104 42.1158 10.6104C46.7048 10.6104 51.0359 11.2243 54.3108 12.3388C55.7471 12.8277 56.8355 13.3607 57.6562 13.9069V7.70102ZM53.5556 14.5577C50.5174 13.5237 46.4548 12.9542 42.1158 12.9542C38.1056 12.9542 34.3334 13.4416 31.386 14.3315L56.525 18.964C57.3278 18.3902 57.6562 17.8565 57.6562 17.4701C57.6562 16.7704 56.5823 15.5877 53.5556 14.5577Z" fill="#F1CDB3"/>
<path d="M6.68777 16.598C6.63386 16.6519 6.57421 16.7011 6.50976 16.7433C6.44592 16.7859 6.37801 16.822 6.30702 16.8511C6.23671 16.8804 6.163 16.9027 6.088 16.9179C5.93718 16.9484 5.78179 16.9484 5.63097 16.9179C5.55597 16.9027 5.48214 16.8804 5.41066 16.8511C5.34023 16.8218 5.27238 16.7855 5.2091 16.7433C5.14452 16.7011 5.08476 16.6519 5.03085 16.598C4.97695 16.5441 4.92773 16.4843 4.88554 16.4198C4.84218 16.3566 4.80702 16.2886 4.77773 16.2171C4.74843 16.1468 4.72499 16.073 4.71105 15.998C4.6957 15.923 4.68761 15.8456 4.68761 15.7695C4.68761 15.6921 4.6957 15.6159 4.71105 15.5398C4.72499 15.4648 4.74843 15.3909 4.77773 15.3206C4.80702 15.2503 4.84218 15.1823 4.88554 15.1179C4.92773 15.0546 4.97695 14.9948 5.03085 14.9398C5.19533 14.7768 5.40397 14.6655 5.63097 14.6198C5.70597 14.6046 5.78331 14.5976 5.85949 14.5976C6.01311 14.5972 6.16526 14.6275 6.30702 14.6866C6.37801 14.7158 6.44592 14.7519 6.50976 14.7945C6.57421 14.8378 6.63398 14.8859 6.68788 14.9398C6.74191 14.9948 6.79113 15.0546 6.8332 15.1179C6.87538 15.1823 6.91171 15.2503 6.94101 15.3206C6.97031 15.3909 6.99374 15.4648 7.00898 15.5398C7.02421 15.6159 7.03124 15.6921 7.03124 15.7695C7.03124 16.0777 6.90585 16.38 6.68777 16.598Z" fill="#F1CDB3"/>
</svg>
